<?xml version="1.0" encoding="UTF-8"?>
<svg width="210mm" height="297mm" viewBox="0 0 210 297" fill="none" xmlns="http://www.w3.org/2000/svg">
  <!-- 테두리 -->
  <rect x="10" y="10" width="190" height="277" stroke="#8B7355" stroke-width="1" fill="none"/>
  <rect x="12" y="12" width="186" height="273" stroke="#8B7355" stroke-width="0.5" fill="none"/>
  
  <!-- 모서리 장식 -->
  <g id="corner-tl">
    <path d="M5 25C5 15 15 5 25 5" stroke="#8B7355" stroke-width="1.5"/>
    <path d="M8 20C8 13 13 8 20 8" stroke="#8B7355" stroke-width="1"/>
  </g>
  
  <!-- 나머지 모서리에 같은 장식 복사 -->
  <use href="#corner-tl" transform="translate(210,0) scale(-1,1)"/>
  <use href="#corner-tl" transform="translate(0,297) scale(1,-1)"/>
  <use href="#corner-tl" transform="translate(210,297) scale(-1,-1)"/>
  
  <!-- 테두리 장식 패턴 -->
  <pattern id="border-pattern" x="0" y="0" width="20" height="20" patternUnits="userSpaceOnUse">
    <path d="M0 10C5 10 10 5 10 0C10 5 15 10 20 10C15 10 10 15 10 20C10 15 5 10 0 10Z" fill="#8B7355" opacity="0.2"/>
  </pattern>
  
  <!-- 패턴 적용 -->
  <rect x="15" y="15" width="180" height="267" fill="url(#border-pattern)"/>
</svg> 